# xmcd
#
# Track frame offsets: 
#        187
#        11917
#        24667
#        36422
#        48822
#        61415
#        74510
#        86770
#        99657
#        111730
#        125000
#        138407
#        150215
#        163382
#        176680
#        189275
#        202527
#        215250
#        226782
#        238715
#        249620
#        261567
#
# Disc length: 3640 seconds
#
# Revision: 1
# Processed by: cddbd v1.5.2PL0 Copyright (c) Steve Scherf et al.
# Submitted via: ExactAudioCopy v0.99pb5
#
DISCID=3d0e3616
DTITLE=HANK WILLIAMS - Great American Hero disc 2 Lovesick Blues (1948
DTITLE=1950)
DYEAR=1988
DGENRE=Country
TTITLE0=LOST ON THE RIVER
TTITLE1=THERE'LL BE NO TEARDROPS TONIGHT
TTITLE2=I HEARD MY MOTHER PRAYING FOR ME
TTITLE3=LOVESICK BLUES
TTITLE4=DEAR BROTHER
TTITLE5=JESUS REMEMBERED ME
TTITLE6=LOST HIGHWAY
TTITLE7=MAY YOU NEVER BE ALONE
TTITLE8=HONKY TONK BLUES
TTITLE9=MIND YOUR OWN BUSINESS
TTITLE10=YOU'RE GONNA CHANGE(OR I'M GONNA LEAVE)
TTITLE11=MY SON CALLS ANOTHER MAN DADDY
TTITLE12=WEDDING BELLS
TTITLE13=I'VE JUST TOLD MAMA GOODBYE
TTITLE14=I'M SO LONESOME I COULD CRY
TTITLE15=A HOUSE WITHOUT LOVE
TTITLE16=I JUST DON'T LIKE THIS KIND OF LIVIN'
TTITLE17=MY BUCKET'S GOT A HOLE IN IT
TTITLE18=LONG GONE LONESOME BLUES
TTITLE19=WHY DON'T YOU LOVE ME
TTITLE20=WHY SHOULD WE TRY ANYMORE
TTITLE21=MY SON CALLS ANOTHER MAN DADDY
EXTD=YEAR: 1988 ID3G: 2
EXTT0=
EXTT1=
EXTT2=
EXTT3=
EXTT4=
EXTT5=
EXTT6=
EXTT7=
EXTT8=
EXTT9=
EXTT10=
EXTT11=
EXTT12=
EXTT13=
EXTT14=
EXTT15=
EXTT16=
EXTT17=
EXTT18=
EXTT19=
EXTT20=
EXTT21=
PLAYORDER=
